<?xml version="1.0" encoding="utf-8"?><!-- Uploaded to: SVG Repo, www.svgrepo.com, Generator: SVG Repo Mixer Tools -->
<svg width="800px" height="800px" viewBox="0 0 32 32" fill="none" xmlns="http://www.w3.org/2000/svg">
<path d="M27 2H5C3.34315 2 2 3.34315 2 5V27C2 28.6569 3.34315 30 5 30H27C28.6569 30 30 28.6569 30 27V5C30 3.34315 28.6569 2 27 2Z" fill="#FF6F00"/>
<path d="M22 15H10C9.20435 15 8.44129 14.6839 7.87868 14.1213C7.31607 13.5587 7 12.7956 7 12V10C7 9.20435 7.31607 8.44129 7.87868 7.87868C8.44129 7.31607 9.20435 7 10 7H22C22.7956 7 23.5587 7.31607 24.1213 7.87868C24.6839 8.44129 25 9.20435 25 10V12C25 12.7956 24.6839 13.5587 24.1213 14.1213C23.5587 14.6839 22.7956 15 22 15ZM9 10V12C9 12.2652 9.10536 12.5196 9.29289 12.7071C9.48043 12.8946 9.73478 13 10 13H22C22.2652 13 22.5196 12.8946 22.7071 12.7071C22.8946 12.5196 23 12.2652 23 12V10C23 9.73478 22.8946 9.48043 22.7071 9.29289C22.5196 9.10536 22.2652 9 22 9H10C9.73478 9 9.48043 9.10536 9.29289 9.29289C9.10536 9.48043 9 9.73478 9 10Z" fill="#1A237E"/>
<path d="M14 24.81C13.8684 24.8108 13.7379 24.7855 13.6161 24.7358C13.4943 24.686 13.3834 24.6127 13.29 24.52L7.29 18.52C7.10375 18.3326 6.99921 18.0792 6.99921 17.815C6.99921 17.5508 7.10375 17.2974 7.29 17.11C7.38296 17.0163 7.49356 16.9419 7.61542 16.8911C7.73728 16.8403 7.86799 16.8142 8 16.8142C8.13201 16.8142 8.26272 16.8403 8.38458 16.8911C8.50644 16.9419 8.61704 17.0163 8.71 17.11L14.71 23.11C14.8963 23.2974 15.0008 23.5508 15.0008 23.815C15.0008 24.0792 14.8963 24.3326 14.71 24.52C14.6166 24.6127 14.5057 24.686 14.3839 24.7358C14.2621 24.7855 14.1316 24.8108 14 24.81Z" fill="#1A237E"/>
<path d="M8 24.81C7.80342 24.8092 7.61145 24.7505 7.44806 24.6411C7.28468 24.5318 7.15714 24.3768 7.08138 24.1954C7.00562 24.014 6.98501 23.8143 7.02211 23.6213C7.05922 23.4282 7.15239 23.2504 7.29 23.11L13.29 17.11C13.383 17.0163 13.4936 16.9419 13.6154 16.8911C13.7373 16.8403 13.868 16.8142 14 16.8142C14.132 16.8142 14.2627 16.8403 14.3846 16.8911C14.5064 16.9419 14.617 17.0163 14.71 17.11C14.8963 17.2974 15.0008 17.5508 15.0008 17.815C15.0008 18.0792 14.8963 18.3326 14.71 18.52L8.71 24.52C8.61656 24.6127 8.50574 24.686 8.38391 24.7358C8.26207 24.7855 8.13161 24.8108 8 24.81Z" fill="#1A237E"/>
<path d="M24 22H18C17.7348 22 17.4804 21.8946 17.2929 21.7071C17.1054 21.5196 17 21.2652 17 21C17 20.7348 17.1054 20.4804 17.2929 20.2929C17.4804 20.1054 17.7348 20 18 20H24C24.2652 20 24.5196 20.1054 24.7071 20.2929C24.8946 20.4804 25 20.7348 25 21C25 21.2652 24.8946 21.5196 24.7071 21.7071C24.5196 21.8946 24.2652 22 24 22Z" fill="#1A237E"/>
<path d="M21 24.81C20.7352 24.8063 20.4816 24.7027 20.29 24.52C20.1974 24.4261 20.1258 24.3136 20.08 24.19C20.0271 24.0703 19.9998 23.9409 19.9998 23.81C19.9998 23.6791 20.0271 23.5497 20.08 23.43C20.1306 23.3088 20.2017 23.1972 20.29 23.1C20.383 23.0063 20.4936 22.9319 20.6154 22.8811C20.7373 22.8303 20.868 22.8042 21 22.8042C21.132 22.8042 21.2627 22.8303 21.3846 22.8811C21.5064 22.9319 21.617 23.0063 21.71 23.1C21.801 23.1951 21.8724 23.3072 21.92 23.43C21.9729 23.5497 22.0002 23.6791 22.0002 23.81C22.0002 23.9409 21.9729 24.0703 21.92 24.19C21.8742 24.3136 21.8026 24.4261 21.71 24.52C21.5184 24.7027 21.2648 24.8063 21 24.81Z" fill="#1A237E"/>
<path d="M21 18.8101C20.7352 18.8064 20.4816 18.7028 20.29 18.5201C20.1973 18.4266 20.124 18.3158 20.0742 18.194C20.0245 18.0721 19.9992 17.9417 20 17.8101C20.0016 17.6794 20.0288 17.5503 20.08 17.4301C20.1682 17.2158 20.3282 17.0388 20.5325 16.9293C20.7368 16.8199 20.9727 16.7848 21.2 16.8301C21.2627 16.841 21.3233 16.8612 21.38 16.8901C21.4437 16.9119 21.5043 16.9422 21.56 16.9801L21.71 17.1001C21.801 17.1952 21.8724 17.3073 21.92 17.4301C21.9712 17.5503 21.9984 17.6794 22 17.8101C22.0008 17.9417 21.9755 18.0721 21.9258 18.194C21.876 18.3158 21.8027 18.4266 21.71 18.5201L21.56 18.6401L21.38 18.7301C21.3233 18.7589 21.2627 18.7791 21.2 18.7901L21 18.8101Z" fill="#1A237E"/>
<path d="M5 2C4.20435 2 3.44129 2.31607 2.87868 2.87868C2.31607 3.44129 2 4.20435 2 5V27C2 27.7956 2.31607 28.5587 2.87868 29.1213C3.44129 29.6839 4.20435 30 5 30H15.91V2H5Z" fill="#F9A825"/>
<path d="M10 13C9.73478 13 9.48043 12.8946 9.29289 12.7071C9.10536 12.5196 9 12.2652 9 12V10C9 9.73478 9.10536 9.48043 9.29289 9.29289C9.48043 9.10536 9.73478 9 10 9H15.91V7H10C9.20435 7 8.44129 7.31607 7.87868 7.87868C7.31607 8.44129 7 9.20435 7 10V12C7 12.7956 7.31607 13.5587 7.87868 14.1213C8.44129 14.6839 9.20435 15 10 15H15.91V13H10Z" fill="#303F9F"/>
<path d="M8.71 17.2899C8.52169 17.1016 8.2663 16.9958 8 16.9958C7.7337 16.9958 7.4783 17.1016 7.29 17.2899C7.10169 17.4782 6.99591 17.7336 6.99591 17.9999C6.99591 18.2662 7.10169 18.5216 7.29 18.7099L13.29 24.7099C13.383 24.8037 13.4936 24.8781 13.6154 24.9288C13.7373 24.9796 13.868 25.0057 14 25.0057C14.132 25.0057 14.2627 24.9796 14.3846 24.9288C14.5064 24.8781 14.617 24.8037 14.71 24.7099C14.8037 24.617 14.8781 24.5064 14.9289 24.3845C14.9797 24.2627 15.0058 24.132 15.0058 23.9999C15.0058 23.8679 14.9797 23.7372 14.9289 23.6154C14.8781 23.4935 14.8037 23.3829 14.71 23.2899L8.71 17.2899Z" fill="#303F9F"/>
<path d="M13.29 17.2899L7.29 23.2899C7.19627 23.3829 7.12188 23.4935 7.07111 23.6154C7.02034 23.7372 6.9942 23.8679 6.9942 23.9999C6.9942 24.132 7.02034 24.2627 7.07111 24.3845C7.12188 24.5064 7.19627 24.617 7.29 24.7099C7.38296 24.8037 7.49356 24.8781 7.61542 24.9288C7.73728 24.9796 7.86799 25.0057 8 25.0057C8.13201 25.0057 8.26272 24.9796 8.38458 24.9288C8.50644 24.8781 8.61704 24.8037 8.71 24.7099L14.71 18.7099C14.8032 18.6167 14.8772 18.506 14.9277 18.3842C14.9781 18.2624 15.0041 18.1318 15.0041 17.9999C15.0041 17.8681 14.9781 17.7375 14.9277 17.6157C14.8772 17.4939 14.8032 17.3832 14.71 17.2899C14.6168 17.1967 14.5061 17.1227 14.3842 17.0723C14.2624 17.0218 14.1319 16.9958 14 16.9958C13.8681 16.9958 13.7376 17.0218 13.6158 17.0723C13.4939 17.1227 13.3832 17.1967 13.29 17.2899Z" fill="#303F9F"/>
</svg>